<svg width="642" height="414" viewBox="0 0 642 414" fill="none" xmlns="http://www.w3.org/2000/svg">
<path d="M641.335 0.365021H0.273438V413.275H641.335V0.365021Z" fill="#E6E6E6"/>
<path d="M623.004 52.154H18.6047V388.847H623.004V52.154Z" fill="white"/>
<path d="M641.062 0H0V27.39H641.062V0Z" fill="#6777EF"/>
<path d="M20.2394 19.081C23.0274 19.081 25.2875 16.808 25.2875 14.004C25.2875 11.2001 23.0274 8.927 20.2394 8.927C17.4514 8.927 15.1912 11.2001 15.1912 14.004C15.1912 16.808 17.4514 19.081 20.2394 19.081Z" fill="white"/>
<path d="M39.3989 19.081C42.1869 19.081 44.447 16.808 44.447 14.004C44.447 11.2001 42.1869 8.927 39.3989 8.927C36.6108 8.927 34.3507 11.2001 34.3507 14.004C34.3507 16.808 36.6108 19.081 39.3989 19.081Z" fill="white"/>
<path d="M58.5583 19.081C61.3464 19.081 63.6065 16.808 63.6065 14.004C63.6065 11.2001 61.3464 8.927 58.5583 8.927C55.7703 8.927 53.5102 11.2001 53.5102 14.004C53.5102 16.808 55.7703 19.081 58.5583 19.081Z" fill="white"/>
<path d="M211.18 79.848H92.9688V208.83H211.18V79.848Z" fill="#E6E6E6"/>
<path d="M379.909 79.848H261.698V208.83H379.909V79.848Z" fill="#E6E6E6"/>
<path d="M548.637 79.848H430.425V208.83H548.637V79.848Z" fill="#E6E6E6"/>
<path d="M211.18 232.176H92.9688V361.158H211.18V232.176Z" fill="#E6E6E6"/>
<path d="M379.909 232.176H261.698V361.158H379.909V232.176Z" fill="#E6E6E6"/>
<path d="M548.637 232.176H430.425V361.158H548.637V232.176Z" fill="#E6E6E6"/>
<path d="M290.269 265.325L311.868 256.737L314.38 299.676C314.38 299.676 318.9 312.81 317.393 317.862C317.393 317.862 318.398 326.45 315.886 326.955C313.374 327.46 306.341 328.471 305.843 327.965C305.346 327.459 305.341 325.944 305.341 325.944C305.341 325.944 300.318 329.48 299.816 333.521C299.816 333.521 278.719 340.088 278.217 334.026C277.715 327.964 288.765 322.912 288.765 322.912L297.304 309.778L290.269 265.325Z" fill="white"/>
<path d="M335.98 265.325L357.576 256.737L360.087 299.676C360.087 299.676 364.608 312.81 363.101 317.862C363.101 317.862 364.105 326.45 361.594 326.955C359.082 327.46 352.048 328.471 351.551 327.965C351.054 327.459 351.049 325.944 351.049 325.944C351.049 325.944 346.026 329.48 345.524 333.521C345.524 333.521 324.427 340.088 323.925 334.026C323.423 327.964 334.473 322.912 334.473 322.912L343.012 309.778L335.98 265.325Z" fill="white"/>
<path d="M338.09 99.51C338.09 99.51 333.491 112.434 338.82 118.262L334.377 133.615C334.377 133.615 350.161 181.237 345.652 187.889C345.652 187.889 328.816 196.355 295.141 184.865L308.819 131.498L306.866 108.972L309.571 98.389L315.584 97.789C315.584 97.789 311.976 111.395 318.591 113.512C325.205 115.629 331.657 98.129 331.657 98.129L338.09 99.51Z" fill="#3F3D56"/>
<path d="M125.703 182.937L131.507 185.325L159.206 148.712L167.911 191.692L173.715 190.631C177.438 153.576 180.477 115.781 176.749 97.905L155.249 96.976L145.489 128.287L140.74 149.512L125.703 182.937Z" fill="white"/>
<path d="M477.947 97.612C477.947 97.612 470.026 108.686 470.413 113.155C470.8 117.624 475.822 190.482 475.822 190.482L487.607 191.065L484.127 138.607L487.024 124.424L494.172 190.482L508.661 190.871L495.718 105.19L493.207 97.613L477.947 97.612Z" fill="white"/>
<path d="M522.713 276.018C520.61 273.48 516.995 272.108 513.524 271.366C513.623 271.049 502.966 268.834 502.785 269.29L498.767 266.071L486.42 272.518L479.483 267.768L476.261 268.918C476.392 268.346 466.257 270.112 466.257 270.112C464.321 270.182 461.848 270.304 459.08 270.518C449.386 271.268 448.639 296.518 448.639 296.518C453.099 294.683 457.855 293.682 462.672 293.563L465.292 323.763C478.768 322.601 492.901 323.953 507.551 327.263L514.42 303.523L530.418 297.266C530.418 297.266 527.685 282.017 522.713 276.018Z" fill="#3F3D56"/>
<path d="M179.416 261.637C177.683 259.546 174.705 258.415 171.844 257.804C171.93 257.542 163.145 255.718 162.995 256.094L159.684 253.442L149.513 258.754L143.796 254.841L141.141 255.789C141.25 255.318 132.899 256.772 132.899 256.772C131.308 256.83 129.265 256.93 126.985 257.107C118.998 257.725 118.384 278.528 118.384 278.528C122.059 277.016 125.977 276.191 129.946 276.093L132.105 337.007C143.209 336.049 154.854 337.164 166.921 339.891L172.581 284.301L185.763 279.146C185.763 279.146 183.511 266.582 179.416 261.637Z" fill="white"/>
</svg>
