<svg width="1400" height="100" viewBox="0 0 1400 100" fill="none" xmlns="http://www.w3.org/2000/svg">
<path d="M0 35.2616L58.3333 42.4772C116.667 49.4231 233.333 64.259 350 64.0567C466.667 64.259 583.333 49.4231 700 31.6875C816.667 13.6822 933.333 -7.8973 1050 2.89243C1166.67 13.6822 1283.33 56.8411 1341.67 78.4205L1400 100H1341.67C1283.33 100 1166.67 100 1050 100C933.333 100 816.667 100 700 100C583.333 100 466.667 100 350 100C233.333 100 116.667 100 58.3333 100H0V35.2616Z" fill="url(#paint0_linear_0_4)"/>
<defs>
<linearGradient id="paint0_linear_0_4" x1="0" y1="50" x2="1400" y2="49.9997" gradientUnits="userSpaceOnUse">
<stop stop-color="#333333"/>
<stop offset="1" stop-color="#444444"/>
</linearGradient>
</defs>
</svg>
